<?xml version="1.0" encoding="UTF-8" standalone="no"?>
<svg xmlns:dc="http://purl.org/dc/elements/1.1/" xmlns:cc="http://creativecommons.org/ns#" xmlns:rdf="http://www.w3.org/1999/02/22-rdf-syntax-ns#" xmlns:svg="http://www.w3.org/2000/svg" xmlns="http://www.w3.org/2000/svg" xmlns:sodipodi="http://sodipodi.sourceforge.net/DTD/sodipodi-0.dtd" xmlns:inkscape="http://www.inkscape.org/namespaces/inkscape" inkscape:export-ydpi="319" inkscape:export-xdpi="319" inkscape:export-filename="/home/pwenig/owncloud/intern/Website/Logos/Lablicate-Logo.png" version="1.1" x="0px" y="0px" viewBox="0 0 259.89998 32.2500002" enable-background="new 0 0 351.7 88.2" xml:space="preserve" id="svg304" sodipodi:docname="Lablicate-Logo.svg" inkscape:version="1.0 (6e3e5246a0, 2020-05-07)" width="259.89999" height="64.5">
   <metadata id="metadata310">
      <rdf:RDF>
         <cc:Work rdf:about="">
            <dc:format>
          image/svg+xml
        </dc:format>
            <dc:type rdf:resource="http://purl.org/dc/dcmitype/StillImage" />
            <dc:title />
         </cc:Work>
      </rdf:RDF>
   </metadata>
   <defs id="defs308" />
   <sodipodi:namedview inkscape:document-rotation="0" pagecolor="#ffffff" bordercolor="#666666" borderopacity="1" objecttolerance="10" gridtolerance="10" guidetolerance="10" inkscape:pageopacity="0" inkscape:pageshadow="2" inkscape:window-width="1920" inkscape:window-height="1025" id="namedview306" showgrid="false" inkscape:zoom="2.0259847" inkscape:cx="190.22978" inkscape:cy="77.891411" inkscape:window-x="0" inkscape:window-y="27" inkscape:window-maximized="1" inkscape:current-layer="svg304" />
   <g id="g1220" transform="translate(-82.600003,-19.3)">
      <g id="g293">
         <g id="g261">
            <path id="path243" d="M 108.7,55.6 H 82.6 V 19.9 h 8.6 v 29.6 h 17.5 z" fill="#a51008" />
            <path id="path245" d="m 147.6,55.6 h -8.7 l -3.2,-9.4 h -13 l -3.1,9.4 h -8.5 l 13.2,-35.7 h 10.4 z M 133.8,40.4 129.3,27 h -0.2 l -4.5,13.4 z" fill="#a51008" />
            <path id="path247" d="m 180.3,42.1 v 5.5 c 0,3 -1.2,5 -3.6,6.2 -2.4,1.2 -5.9,1.8 -10.6,1.8 H 151.2 V 19.9 h 14.5 c 5.1,0 8.5,0.6 10.3,1.7 1.8,1.1 2.7,3.1 2.7,5.9 v 4.4 c 0,1 -0.4,2 -1.2,2.9 -0.8,0.9 -1.7,1.5 -2.8,1.8 v 0.3 c 1.3,0.1 2.6,0.7 3.8,1.8 1.2,0.9 1.8,2.1 1.8,3.4 z M 170.4,30.8 V 29 c 0,-1.2 -0.3,-2 -0.8,-2.4 -0.5,-0.4 -1.9,-0.7 -4.1,-0.7 h -5.7 v 8.4 h 5.9 c 2,0 3.3,-0.3 3.9,-0.8 0.5,-0.4 0.8,-1.3 0.8,-2.7 z m 1.3,15.6 v -2.9 c 0,-1.3 -0.3,-2.3 -1,-2.8 -0.7,-0.6 -1.9,-0.8 -3.6,-0.8 h -7.3 v 9.5 h 6.1 c 2.1,0 3.6,-0.2 4.5,-0.7 0.8,-0.4 1.3,-1.2 1.3,-2.3 z" fill="#a51008" />
            <path id="path249" d="M 209.8,55.6 H 186.9 V 19.9 h 5.3 v 32 h 17.5 v 3.7 z" fill="#484b4d" />
            <path id="path251" d="m 219.9,55.6 h -5.3 V 19.9 h 5.3 z" fill="#484b4d" />
            <path id="path253" d="m 252.5,55.1 c -3.2,0.7 -6.5,1 -10,1 -10,0 -15,-3.2 -15,-9.7 V 29.5 c 0,-6.8 5,-10.2 15,-10.2 3.3,0 6.6,0.3 9.8,1 v 4 c -3.5,-0.9 -6.7,-1.3 -9.7,-1.3 -1.4,0 -2.6,0.1 -3.7,0.2 -1.1,0.1 -2.1,0.5 -3.1,0.9 -1,0.4 -1.8,1.1 -2.4,2 -0.5,0.9 -0.8,2 -0.8,3.4 v 16.7 c 0,4.1 3.4,6.2 10.2,6.2 2.9,0 6.2,-0.4 9.7,-1.3 z" fill="#484b4d" />
            <path id="path255" d="m 289.2,55.6 h -5.6 l -4.1,-10.8 h -15.3 l -4,10.8 H 255 l 14.2,-35.7 h 6.2 z m -11,-14.6 -6,-16.1 h -0.5 l -6,16.1 z" fill="#484b4d" />
            <path id="path257" d="m 314.1,23.6 h -12 v 32 h -5.4 v -32 h -12.1 v -3.7 h 29.5 z" fill="#484b4d" />
            <path id="path259" d="M 342.4,55.6 H 317.9 V 19.9 h 24 v 3.7 h -18.6 v 11.7 h 16.8 V 39 h -16.8 v 12.8 h 19.2 v 3.8 z" fill="#484b4d" />
         </g>
      </g>
   </g>
</svg>